Coordinates
version=1
nRows=29
nColumns=22
inDegrees=yes

Units are S.I. units (second, meters, Newtons, ...)
If the header above contains a line with 'inDegrees', this indicates whether rotational values are in degrees (yes) or radians (no).

endheader
time	pelvis_tilt	pelvis_list	pelvis_rotation	pelvis_tx	pelvis_ty	pelvis_tz	hip_flexion_r	hip_adduction_r	hip_rotation_r	knee_angle_r	ankle_angle_r	subtalar_angle_r	hip_flexion_l	hip_adduction_l	hip_rotation_l	knee_angle_l	ankle_angle_l	subtalar_angle_l	lumbar_extension	lumbar_bending	lumbar_rotation
      1.36000000	    -10.74536152	      3.45158685	     -7.64457594	     -1.00991203	      0.86886792	     -0.20095377	     19.47789788	    -10.80125594	      2.95999183	    -34.20409757	     16.52264088	      6.03633249	     12.43515485	      3.54362210	      0.59809690	    -18.48202172	     20.30738522	     -1.25446353	      2.20634915	     -5.53177891	     13.20297312
      1.37000000	    -10.32540213	      3.31583335	     -7.55039243	     -1.00686611	      0.86916833	     -0.20246255	     20.84672411	    -10.69183289	      3.59999116	    -37.76539441	     15.19779141	      6.16883423	     11.70114509	      3.61189886	      0.75611479	    -18.35043485	     20.44809566	     -1.26915614	      1.61596241	     -5.50109209	     13.00873874
      1.38000000	     -9.92094862	      3.11865312	     -7.42923444	     -1.00371396	      0.86954045	     -0.20388845	     22.28327685	    -10.47764356	      4.17514458	    -41.35983415	     13.68415268	      6.25656334	     10.95201222	      3.60034415	      0.90237858	    -18.19023694	     20.60262642	     -1.28881611	      1.02702536	     -5.40030223	     12.75562939
      1.39000000	     -9.50659334	      2.87155836	     -7.27551545	     -1.00040067	      0.87002991	     -0.20523800	     23.72006188	    -10.18438600	      4.65951068	    -44.89612118	     12.09704893	      6.22510338	     10.14659874	      3.52672363	      1.05399147	    -17.97673416	     20.74418104	     -1.29085754	      0.41766719	     -5.24371273	     12.43323211
      1.40000000	     -9.09264923	      2.58502021	     -7.08318102	     -0.99690411	      0.87060457	     -0.20652283	     25.14028333	     -9.83578631	      5.03013604	    -48.30443597	     10.57295195	      6.05814888	      9.29574662	      3.39984865	      1.20986439	    -17.70651297	     20.87050665	     -1.27057433	     -0.19508524	     -5.03934185	     12.04634410
      1.41000000	     -8.68385923	      2.26170513	     -6.84676232	     -0.99321100	      0.87124848	     -0.20773879	     26.52245314	     -9.44891409	      5.26571547	    -51.52027119	      9.23099200	      5.76112077	      8.40869983	      3.22094082	      1.39000929	    -17.38800031	     20.96576865	     -1.22556063	     -0.80149821	     -4.79044894	     11.59629806
      1.42000000	     -8.28770008	      1.91262933	     -6.55300083	     -0.98931767	      0.87191271	     -0.20892679	     27.85406173	     -9.05699869	      5.34034225	    -54.49268478	      8.20786427	      5.18409163	      7.50733904	      3.00443581	      1.61399277	    -17.04370755	     21.08848673	     -1.13793456	     -1.38897167	     -4.50468419	     11.09255010
      1.43000000	     -7.90778121	      1.52228943	     -6.19822247	     -0.98522380	      0.87261589	     -0.21009119	     29.10727521	     -8.65012450	      5.27023238	    -57.15444950	      7.49513353	      4.68057772	      6.59355574	      2.73090908	      1.89287327	    -16.66754644	     21.17155946	     -1.05737565	     -1.95556328	     -4.16106901	     10.50155627
      1.44000000	     -7.57193990	      1.12133924	     -5.79959998	     -0.98096482	      0.87326188	     -0.21123602	     30.32538755	     -8.26374841	      5.07708221	    -59.48998554	      7.10432106	      4.16376035	      5.71556646	      2.42836101	      2.20305827	    -16.28371055	     21.25652369	     -0.98380362	     -2.46179506	     -3.78767146	      9.86519697
      1.45000000	     -7.28274583	      0.71785112	     -5.36702325	     -0.97655169	      0.87383101	     -0.21234502	     31.50682922	     -7.90777975	      4.77804871	    -61.47256581	      6.96351422	      3.60690649	      4.88405736	      2.10472221	      2.54351576	    -15.90466067	     21.33462102	     -0.91958341	     -2.90592339	     -3.39716379	      9.19386383
      1.46000000	     -7.03991919	      0.31716180	     -4.90636258	     -0.97201042	      0.87430678	     -0.21344928	     32.64769128	     -7.59531639	      4.39223564	    -63.07683194	      6.98860724	      3.02391348	      4.10724782	      1.76939490	      2.91688910	    -15.54054983	     21.40252042	     -0.86856666	     -3.28856286	     -2.99011366	      8.48380898
      1.47000000	     -6.84539469	     -0.07667972	     -4.42487009	     -0.96732127	      0.87467316	     -0.21453858	     33.74300955	     -7.33691482	      3.92613148	    -64.28809080	      7.10096143	      2.50037271	      3.38549493	      1.42767260	      3.32685099	    -15.19082168	     21.46828992	     -0.83000496	     -3.60263794	     -2.57491695	      7.75760223
      1.48000000	     -6.68856782	     -0.46562990	     -3.93148225	     -0.96249151	      0.87492906	     -0.21562218	     34.77479045	     -7.13359249	      3.39732324	    -65.09427345	      7.24925090	      2.04263200	      2.71376198	      1.07798112	      3.74653564	    -14.86550367	     21.55037184	     -0.79401464	     -3.86086210	     -2.15058438	      7.03305694
      1.49000000	     -6.57373519	     -0.83736266	     -3.44550508	     -0.95757620	      0.87506815	     -0.21666693	     35.75279648	     -6.96673091	      2.86986047	    -65.49767612	      7.38080028	      1.78967439	      2.10353001	      0.73541537	      4.17589051	    -14.57073623	     21.59889739	     -0.75579563	     -4.06523314	     -1.73336474	      6.30327992
      1.50000000	     -6.44758640	     -1.22583756	     -2.99689432	     -0.95251012	      0.87515090	     -0.21760120	     36.60410791	     -6.79388550	      2.32512730	    -65.49169702	      7.48001518	      1.33483117	      1.48121059	      0.35937214	      4.54369835	    -14.29495783	     21.74312727	     -0.69082211	     -4.27278674	     -1.29664882	      5.65300084
      1.51000000	     -6.34693850	     -1.58965077	     -2.57850815	     -0.94736046	      0.87512075	     -0.21844422	     37.38234791	     -6.63277612	      1.83408538	    -65.10018710	      7.50960105	      1.11169655	      0.89949037	     -0.00085945	      4.89796069	    -14.04884677	     21.84985896	     -0.62062087	     -4.44617531	     -0.88308941	      5.01587749
      1.52000000	     -6.25350713	     -1.93376904	     -2.19017782	     -0.94211898	      0.87497939	     -0.21922588	     38.06502598	     -6.47653572	      1.40062822	    -64.34040195	      7.45178409	      1.04165388	      0.33740234	     -0.34637904	      5.21490256	    -13.83229223	     21.96895887	     -0.56150457	     -4.60959862	     -0.48250545	      4.42303375
      1.53000000	     -6.13405349	     -2.26558535	     -1.85581960	     -0.93673327	      0.87476869	     -0.21983257	     38.60888500	     -6.29471291	      1.03254582	    -63.22288303	      7.32648782	      1.05770782	     -0.25892870	     -0.69273185	      5.47096508	    -13.62818440	     22.13233574	     -0.48954604	     -4.79767081	     -0.10666510	      3.90303157
      1.54000000	     -5.98174203	     -2.57232610	     -1.57292743	     -0.93118544	      0.87447621	     -0.22031114	     39.00956793	     -6.09583652	      0.74875436	    -61.77502747	      7.14559497	      1.23056666	     -0.90773858	     -1.02012348	      5.66479198	    -13.41779641	     22.33325601	     -0.39514403	     -5.01863504	      0.24084173	      3.45452377
      1.55000000	     -5.81072465	     -2.84215115	     -1.33391570	     -0.92549816	      0.87407419	     -0.22066271	     39.28478973	     -5.87960496	      0.58095973	    -60.02003366	      6.90757133	      1.62753101	     -1.58555246	     -1.31516483	      5.82097307	    -13.21579665	     22.53816414	     -0.29361784	     -5.26039575	      0.54625142	      3.05634509
      1.56000000	     -5.64650367	     -3.09644288	     -1.10586324	     -0.91965957	      0.87352051	     -0.22090228	     39.45066339	     -5.65378937	      0.45818781	    -57.97399692	      6.62403348	      2.05975961	     -2.24025329	     -1.60324410	      5.94104165	    -13.06718026	     22.76583216	     -0.24569719	     -5.49089324	      0.83040275	      2.66802189
      1.57000000	     -5.45138755	     -3.30715792	     -0.91648523	     -0.91362029	      0.87285567	     -0.22100079	     39.47504999	     -5.41767294	      0.44932629	    -55.66722657	      6.33946225	      2.67320062	     -2.96345328	     -1.85332102	      6.02169874	    -12.88595599	     23.01512037	     -0.17932372	     -5.75242707	      1.05923404	      2.33381639
      1.58000000	     -5.25871716	     -3.44836658	     -0.76130719	     -0.90739102	      0.87200984	     -0.22098137	     39.40988531	     -5.20792989	      0.55871936	    -53.14206407	      6.05728636	      3.57907458	     -3.71670817	     -2.03441550	      6.10750843	    -12.67785485	     23.27677315	     -0.07319812	     -6.00534877	      1.20634646	      2.05690341
      1.59000000	     -5.08036745	     -3.60732286	     -0.58564191	     -0.90098610	      0.87100038	     -0.22089567	     39.22819049	     -4.98080901	      0.66312598	    -50.37252905	      5.78326123	      4.17975538	     -4.42360079	     -2.24592963	      6.14473466	    -12.55319364	     23.58127678	     -0.03688347	     -6.23893042	      1.37654362	      1.74122763
      1.60000000	     -4.90532440	     -3.67746929	     -0.43752048	     -0.89438719	      0.86980904	     -0.22072571	     38.97090584	     -4.81074152	      0.89005340	    -47.44007719	      5.51561543	      5.09040976	     -5.17231205	     -2.36417830	      6.22328541	    -12.37792594	     23.86790769	      0.06197106	     -6.46501542	      1.44330815	      1.48359686
      1.61000000	     -4.75125099	     -3.75126995	     -0.27618582	     -0.88761146	      0.86843667	     -0.22050888	     38.62062719	     -4.64809053	      1.10680009	    -44.31622293	      5.27672543	      5.71086347	     -5.87294033	     -2.49497817	      6.26453191	    -12.27902114	     24.20581236	      0.11192911	     -6.66371066	      1.52221290	      1.20664597
      1.62000000	     -4.62955528	     -3.74907145	     -0.12087572	     -0.88066122	      0.86684905	     -0.22022803	     38.23790113	     -4.55202019	      1.40435889	    -41.08441969	      5.02757258	      6.45310224	     -6.56494833	     -2.54969611	      6.32937336	    -12.15704744	     24.53092404	      0.20108625	     -6.82281822	      1.51527153	      0.92676778
      1.63000000	     -4.54839281	     -3.73345044	      0.03993092	     -0.87353579	      0.86505325	     -0.21992923	     37.81630680	     -4.48726599	      1.69794436	    -37.74271083	      4.79162512	      7.02248597	     -7.20295411	     -2.59460333	      6.37470542	    -12.08362888	     24.88098570	      0.26850415	     -6.93196737	      1.50522671	      0.63175309
      1.64000000	     -4.50723262	     -3.66739692	      0.20699467	     -0.86625686	      0.86306064	     -0.21957585	     37.38196493	     -4.48256727	      2.01855516	    -34.34789099	      4.56368757	      7.57352842	     -7.80321563	     -2.59332284	      6.43088071	    -12.02077873	     25.22737699	      0.35170298	     -6.99520055	      1.43947589	      0.31488987
